<svg xmlns="http://www.w3.org/2000/svg"  viewBox="0 0 32 32" width="32px" height="32px"><path d="M 12 4 C 4.789 4 6 11 7 12 C 6.966 10.421 7.174 9.004 8 8 C 8.219 8.296 8.454375 8.52575 8.984375 8.96875 C 8.953375 6.56275 10.834 5.976 12 6 C 13.75 6.036 15 8 14 10 L 16.462891 12.462891 C 19.916891 8.9728906 17 4 12 4 z M 11 8 C 10.318 9.996 10.8 11.419 11 12 C 9.88 11.539 8.893 10.85 8 10 C 7.893 11.006 7.885 12.007 8 13 C 6.854 13.63 5.847 14.295 5 15 L 7 15 L 7 17 C 8 16 9 15 11 14 C 10.229 14.89 9.569 15.897 9 17 C 9.917 16.714 10.729 16.64 11 17 L 12 18 C 12.275 18.343 12.281 19.003 12 20 L 14 19 C 13 18 12 17 12 16 L 13 16 C 13.837 16 15.333781 16.333781 15.925781 16.925781 L 17 18 L 18 16 C 17.2 16.128 16.537 15.781 16 15 L 16 14 L 12 10 C 11.435 9.478 11.159 8.758 11 8 z M 25 12 C 23.765 12.399 22.9 13.123 22 14 L 22 13 C 20.913 13.961 20.339109 14.814625 20.037109 15.890625 C 19.266109 16.702625 18.572109 17.629406 17.912109 18.566406 L 19.34375 19.482422 C 20.10875 17.086422 21.571906 15.725172 23.128906 14.951172 C 24.259906 15.015172 25.364 15.364 26 16 C 26.934 15.066 27.382797 14.266875 28.716797 14.046875 C 28.868797 14.063875 28.96875 14.078125 28.96875 14.078125 C 28.91975 14.058125 28.876125 14.045344 28.828125 14.027344 C 28.887125 14.019344 28.938 14.006 29 14 L 28.373047 13.865234 C 26.757047 13.302234 25.375828 13.194828 24.173828 13.423828 C 24.372828 12.883828 24.652 12.413 25 12 z M 13.5 14 C 13.776 14 14 14.224 14 14.5 C 14 14.776 13.776 15 13.5 15 C 13.224 15 13 14.776 13 14.5 C 13 14.224 13.224 14 13.5 14 z M 14 17 L 14.681641 17.681641 C 14.885641 17.885641 15 18.161219 15 18.449219 L 15 19.527344 C 15 19.826344 15.141 20.107969 15.375 20.292969 C 17.017 21.593969 18.438 22.39 19 24 C 19.063 25.557 18.868 25.855 20 27 C 19.898 25.927 19.811 25.901 20 25 C 21.128 27.486 22.81275 28.420172 25.96875 27.826172 C 25.45775 27.607172 25.182 27.431 25 27 C 28.646 26.452 28.844 21.984 26 21 C 26.813 23.119 24.761 24.053 23 24 C 24.417 22.869 23.815 21.734 23 21 C 22.521 22.182 21.125 21.702 20 21 L 17 19 C 16.651 18.772 16.275 19.196 16 19 C 15.412 18.572 16.235 17.455 14 17 z M 6 17.027344 C 3.844 18.728344 3 21 3 21 L 4.5800781 21 C 4.3660781 21.71 3.468 25.078 5 27 C 5.112 26.247 5.3954844 25.616734 5.6464844 25.177734 C 6.8434844 26.931734 8.88 28 11 28 C 14.286 28 15.844906 26.265906 17.378906 23.378906 L 15.539062 21.539062 C 14.147063 23.464062 12.799 24.761 11 24 C 8.003 22.732 9.3650781 19.61 10.330078 18 L 8 19 L 8 18 L 6 19 L 6 17.027344 z"/></svg>